<!-- Dragon frame 2 (wings DOWN + FIRE BREATH). Same elongated pose as dragon.svg; shown
     for the flap window so the flame reads as "spat on jump". Wing swept to bottom. -->
<svg xmlns="http://www.w3.org/2000/svg" viewBox="1 1 14 14" width="40" height="40" shape-rendering="crispEdges">
  <!-- long curved tail: low-left, flicks up at the tip -->
  <g fill="#e53935">
    <rect x="6" y="9" width="2" height="1"/>
    <rect x="4" y="10" width="2" height="1"/>
    <rect x="3" y="11" width="2" height="1"/>
    <rect x="2" y="10" width="1" height="2"/>
  </g>
  <rect x="1" y="9" width="1" height="2" fill="#ffd54f"/>
  <rect x="2" y="9" width="1" height="1" fill="#ffd54f"/>
  <!-- BIG wing swept toward BOTTOM edge -->
  <g fill="#c2185b">
    <rect x="7" y="9" width="2" height="2"/>
    <rect x="7" y="11" width="2" height="2"/>
    <rect x="6" y="13" width="2" height="1"/>
    <rect x="9" y="10" width="2" height="3"/>
    <rect x="11" y="10" width="2" height="4"/>
  </g>
  <g fill="#7a0f3a"><rect x="7" y="9" width="1" height="5"/><rect x="10" y="10" width="1" height="3"/><rect x="12" y="10" width="1" height="4"/></g>
  <g fill="#ff7043"><rect x="6" y="13" width="1" height="1"/><rect x="11" y="13" width="1" height="1"/></g>
  <!-- elongated body -->
  <g fill="#e53935">
    <rect x="6" y="8" width="2" height="2"/>
    <rect x="8" y="7" width="3" height="2"/>
    <rect x="10" y="6" width="3" height="2"/>
  </g>
  <g fill="#fb8c00"><rect x="7" y="9" width="2" height="1"/><rect x="9" y="8" width="3" height="1"/></g>
  <g fill="#c2185b"><rect x="9" y="6" width="1" height="1"/><rect x="11" y="5" width="1" height="1"/></g>
  <!-- back leg tucked up over the down-swept wing -->
  <g fill="#c2185b"><rect x="5" y="9" width="2" height="2"/><rect x="4" y="10" width="3" height="1"/></g>
  <rect x="4" y="11" width="1" height="1" fill="#7a0f3a"/>
  <rect x="6" y="11" width="1" height="1" fill="#7a0f3a"/>
  <!-- front leg -->
  <g fill="#c2185b"><rect x="11" y="8" width="1" height="1"/></g>
  <!-- horns -->
  <g fill="#ffd54f"><rect x="11" y="4" width="1" height="1"/><rect x="13" y="4" width="1" height="1"/></g>
  <!-- head (pulled back 1px), mouth open -->
  <g fill="#e53935"><rect x="10" y="5" width="3" height="3"/></g>
  <rect x="13" y="7" width="1" height="1" fill="#b71c1c"/>
  <!-- eye -->
  <rect x="11" y="5" width="1" height="1" fill="#fff"/>
  <rect x="12" y="5" width="1" height="1" fill="#1a1a1a"/>
  <!-- FIRE BREATH jet from the mouth, front-right -->
  <g fill="#e53935">
    <rect x="13" y="6" width="2" height="3"/>
    <rect x="14" y="5" width="1" height="1"/>
  </g>
  <g fill="#fb8c00"><rect x="13" y="6" width="2" height="2"/><rect x="13" y="8" width="1" height="1"/></g>
  <rect x="13" y="7" width="1" height="1" fill="#ffd54f"/>
  <rect x="14" y="6" width="1" height="1" fill="#ffd54f"/>
</svg>
