<!-- viewBox = squared content bbox, same footprint as the other models. Horse frame 1
     (gallop EXTENDED: front legs reaching forward, hind legs kicked back). Side-profile
     facing RIGHT: barrel body, arched neck up to a blocky head with ear + muzzle, stubby
     tail. The flowing mane + tail streamers are drawn programmatically in drawPlayer, so
     the sprite only carries a short mane base. A deliberately derpy "nonsense" horse. -->
<svg xmlns="http://www.w3.org/2000/svg" viewBox="1 1 14 14" width="40" height="40" shape-rendering="crispEdges">
  <!-- tail base (streamers added in code) -->
  <rect x="4" y="7" width="1" height="3" fill="#5a3823"/>
  <rect x="3" y="8" width="1" height="2" fill="#4a2c1a"/>
  <!-- barrel body -->
  <g fill="#a86a42"><rect x="5" y="6" width="7" height="4"/></g>
  <rect x="5" y="6" width="7" height="1" fill="#bd7d52"/>
  <rect x="5" y="9" width="7" height="1" fill="#8d5a3b"/>
  <!-- chest / shoulder -->
  <rect x="10" y="5" width="2" height="4" fill="#a86a42"/>
  <!-- arched neck -->
  <rect x="11" y="4" width="2" height="3" fill="#a86a42"/>
  <!-- mane base along the neck crest -->
  <rect x="10" y="3" width="2" height="1" fill="#5a3823"/>
  <rect x="11" y="4" width="1" height="2" fill="#5a3823"/>
  <!-- head + muzzle -->
  <rect x="12" y="3" width="3" height="3" fill="#a86a42"/>
  <rect x="14" y="5" width="1" height="1" fill="#8d5a3b"/>
  <!-- ear -->
  <rect x="12" y="2" width="1" height="1" fill="#8d5a3b"/>
  <!-- eye + nostril -->
  <rect x="13" y="4" width="1" height="1" fill="#1a1008"/>
  <rect x="14" y="5" width="1" height="1" fill="#1a1008"/>
  <!-- FRONT legs: reaching forward -->
  <g fill="#8d5a3b">
    <rect x="11" y="10" width="1" height="3"/>
    <rect x="12" y="12" width="2" height="1"/>
    <rect x="9" y="10" width="1" height="3"/>
  </g>
  <!-- hind legs: kicked back -->
  <g fill="#8d5a3b">
    <rect x="6" y="10" width="1" height="3"/>
    <rect x="4" y="11" width="2" height="1"/>
    <rect x="7" y="10" width="1" height="2"/>
  </g>
  <!-- hooves -->
  <g fill="#2b1a0e">
    <rect x="13" y="13" width="1" height="1"/>
    <rect x="9" y="13" width="1" height="1"/>
    <rect x="4" y="12" width="1" height="1"/>
    <rect x="7" y="12" width="1" height="1"/>
  </g>
</svg>
